<?xml version="1.0" encoding="UTF-8"?>
<svg id="Layer_1" data-name="Layer 1" xmlns="http://www.w3.org/2000/svg" viewBox="0 0 1029.711 294.776">
  <path d="M397.592,140.147c0-5.178,7.812-10.094,27.208-10.094,18.519,0,27.208,5.135,27.208,11.85h-14.043c0-2.15-2.896-3.949-13.165-3.949-9.392,0-12.288,1.229-12.288,2.852,0,4.871,39.935-1.098,39.935,11.629,0,5.617-7.812,10.094-27.647,10.094-18.958,0-27.647-5.135-27.647-11.848h14.043c0,2.15,2.896,3.949,13.604,3.949,9.83,0,12.727-1.229,12.727-2.633,0-4.17-39.935,1.754-39.935-11.85Z" style="fill: #fff;"/>
  <path d="M470.53,141.024h26.331v-10.092h14.043v30.719h-14.043v-11.85h-26.331v11.85h-14.043v-30.719h14.043v10.092Z" style="fill: #fff;"/>
  <path d="M543.907,130.054c17.554,0,28.963,4.828,28.963,16.238s-11.41,16.236-28.963,16.236-28.963-4.826-28.963-16.236,11.41-16.238,28.963-16.238ZM543.907,153.313c9.216,0,14.92-2.414,14.92-7.021s-5.705-7.021-14.92-7.021c-9.128,0-14.92,2.412-14.92,7.021s5.792,7.021,14.92,7.021Z" style="fill: #fff;"/>
  <path d="M632.204,141.903c0,7.461-5.267,10.971-22.381,10.971h-18.87v8.777h-14.043v-30.719h32.913c17.115,0,22.381,3.51,22.381,10.971ZM612.895,144.536c3.95,0,5.267-1.098,5.267-2.633s-1.317-2.633-5.267-2.633h-21.942v5.266h21.942Z" style="fill: #fff;"/>
</svg>