<?xml version="1.0" encoding="UTF-8"?>
<svg id="Layer_1" data-name="Layer 1" xmlns="http://www.w3.org/2000/svg" viewBox="226 126 580 40">
  <path d="M230.078,140.148c0-5.179,7.812-10.094,27.208-10.094,18.52,0,27.208,5.135,27.208,11.849h-14.043c0-2.15-2.896-3.949-13.165-3.949-9.392,0-12.287,1.229-12.287,2.853,0,4.871,39.935-1.098,39.935,11.629,0,5.617-7.812,10.094-27.647,10.094-18.958,0-27.647-5.135-27.647-11.849h14.043c0,2.15,2.896,3.949,13.604,3.949,9.83,0,12.727-1.229,12.727-2.633,0-4.169-39.935,1.755-39.935-11.849Z" style="fill: #fff;"/>
  <path d="M317.059,130.054c17.554,0,28.964,4.827,28.964,16.237s-11.41,16.237-28.964,16.237-28.964-4.827-28.964-16.237,11.41-16.237,28.964-16.237ZM317.059,153.313c9.216,0,14.921-2.414,14.921-7.021s-5.705-7.021-14.921-7.021c-9.128,0-14.921,2.413-14.921,7.021s5.793,7.021,14.921,7.021Z" style="fill: #fff;"/>
  <path d="M350.063,130.932h14.043v15.798c0,5.047,5.792,6.583,12.727,6.583,7.021,0,12.726-1.536,12.726-6.583v-15.798h14.043v16.676c0,10.971-11.409,14.921-26.769,14.921s-26.77-3.95-26.77-14.921v-16.676Z" style="fill: #fff;"/>
  <path d="M434.849,130.932l11.41,21.941h1.755v-21.941h14.043v30.719h-26.33l-11.41-21.942h-1.755v21.942h-14.043v-30.719h26.33Z" style="fill: #fff;"/>
  <path d="M520.514,146.291c0,12.287-12.288,15.359-29.842,15.359h-23.697v-30.719h23.697c17.554,0,29.842,3.071,29.842,15.359ZM493.306,152.873c5.705,0,13.165-1.097,13.165-6.582s-7.46-6.583-13.165-6.583h-12.288v13.165h12.288Z" style="fill: #fff;"/>
  <path d="M552.64,130.054c16.676,0,27.208,4.827,27.208,14.043h-14.043c0-2.414-4.827-4.827-13.165-4.827-9.128,0-14.921,2.413-14.921,7.021s5.793,7.021,14.921,7.021c8.338,0,13.165-2.414,13.165-4.827h14.043c0,9.216-10.532,14.043-27.208,14.043-17.554,0-28.964-4.827-28.964-16.237s11.41-16.237,28.964-16.237Z" style="fill: #fff;"/>
  <path d="M597.931,152.873h25.452v8.777h-39.495v-30.719h14.043v21.941Z" style="fill: #fff;"/>
  <path d="M655.071,130.054c17.554,0,28.963,4.827,28.963,16.237s-11.409,16.237-28.963,16.237-28.964-4.827-28.964-16.237,11.41-16.237,28.964-16.237ZM655.071,153.313c9.216,0,14.92-2.414,14.92-7.021s-5.704-7.021-14.92-7.021c-9.128,0-14.921,2.413-14.921,7.021s5.793,7.021,14.921,7.021Z" style="fill: #fff;"/>
  <path d="M688.074,130.932h14.043v15.798c0,5.047,5.792,6.583,12.727,6.583,7.021,0,12.726-1.536,12.726-6.583v-15.798h14.043v16.676c0,10.971-11.409,14.921-26.769,14.921s-26.77-3.95-26.77-14.921v-16.676Z" style="fill: #fff;"/>
  <path d="M800.069,146.291c0,12.287-12.288,15.359-29.842,15.359h-23.697v-30.719h23.697c17.554,0,29.842,3.071,29.842,15.359ZM772.861,152.873c5.705,0,13.165-1.097,13.165-6.582s-7.46-6.583-13.165-6.583h-12.288v13.165h12.288Z" style="fill: #fff;"/>
</svg>