<?xml version="1.0" encoding="UTF-8"?>
<svg id="Layer_1" data-name="Layer 1" xmlns="http://www.w3.org/2000/svg" viewBox="365 126 300 40">
  <path d="M369.636,140.147c0-5.179,7.812-10.094,27.208-10.094,18.519,0,27.208,5.135,27.208,11.849h-14.043c0-2.15-2.896-3.949-13.165-3.949-9.391,0-12.288,1.229-12.288,2.853,0,4.871,39.935-1.098,39.935,11.629,0,5.617-7.812,10.094-27.647,10.094-18.958,0-27.647-5.135-27.647-11.849h14.043c0,2.15,2.896,3.949,13.604,3.949,9.83,0,12.726-1.229,12.726-2.633,0-4.169-39.935,1.755-39.935-11.849Z" style="fill: #fff;"/>
  <path d="M473.731,139.708h-16.237v21.942h-14.043v-21.942h-16.237v-8.776h46.517v8.776Z" style="fill: #fff;"/>
  <path d="M477.332,130.931h47.395v8.776h-33.352v4.389h31.597v4.389h-31.597v4.388h34.229v8.777h-48.272v-30.719Z" style="fill: #fff;"/>
  <path d="M557.292,130.931l7.548,21.941h1.58l7.548-21.941h27.208v30.719h-14.043v-21.942h-1.755l-7.46,21.942h-24.575l-7.46-21.942h-1.755v21.942h-14.043v-30.719h27.208Z" style="fill: #fff;"/>
  <path d="M605.656,140.147c0-5.179,7.812-10.094,27.208-10.094,18.519,0,27.208,5.135,27.208,11.849h-14.043c0-2.15-2.896-3.949-13.165-3.949-9.392,0-12.288,1.229-12.288,2.853,0,4.871,39.935-1.098,39.935,11.629,0,5.617-7.812,10.094-27.647,10.094-18.958,0-27.647-5.135-27.647-11.849h14.043c0,2.15,2.896,3.949,13.604,3.949,9.83,0,12.727-1.229,12.727-2.633,0-4.169-39.935,1.755-39.935-11.849Z" style="fill: #fff;"/>
</svg>