<?xml version="1.0" encoding="UTF-8"?>
<svg id="Layer_1" data-name="Layer 1" xmlns="http://www.w3.org/2000/svg" viewBox="265 126 500 40">
  <path d="M303.585,130.931c13.253,0,23.521.658,23.521,7.898,0,5.486-5.88,7.021-10.356,7.461,4.476.439,12.112,1.537,12.112,7.461,0,6.363-10.269,7.898-23.522,7.898h-34.229v-30.719h32.475ZM309.729,142.342c2.721,0,3.335-.922,3.335-1.756s-.614-1.756-3.335-1.756h-24.575v3.512h24.575ZM311.484,153.752c2.721,0,3.335-.922,3.335-1.756s-.615-1.756-3.335-1.756h-26.331v3.512h26.331Z" style="fill: #fff;"/>
  <path d="M370.643,130.931l20.187,30.719h-15.799l-3.379-5.266h-23.083l-3.379,5.266h-15.36l20.187-30.719h20.625ZM366.036,147.607l-5.047-7.898h-1.755l-5.047,7.898h11.849Z" style="fill: #fff;"/>
  <path d="M419.884,130.931l11.41,21.941h1.755v-21.941h14.043v30.719h-26.33l-11.41-21.941h-1.755v21.941h-14.043v-30.719h26.331Z" style="fill: #fff;"/>
  <path d="M505.549,146.291c0,12.287-12.288,15.359-29.842,15.359h-23.697v-30.719h23.697c17.554,0,29.842,3.072,29.842,15.359ZM478.341,152.873c5.705,0,13.166-1.096,13.166-6.582s-7.46-6.582-13.166-6.582h-12.288v13.164h12.288Z" style="fill: #fff;"/>
  <path d="M537.675,130.055c16.676,0,27.208,4.826,27.208,14.043h-14.043c0-2.414-4.828-4.828-13.166-4.828-9.128,0-14.92,2.414-14.92,7.021s5.792,7.021,14.92,7.021c8.338,0,13.166-2.414,13.166-4.826h14.043c0,9.215-10.532,14.043-27.208,14.043-17.554,0-28.963-4.828-28.963-16.238s11.41-16.236,28.963-16.236Z" style="fill: #fff;"/>
  <path d="M604.908,130.931l20.187,30.719h-15.799l-3.379-5.266h-23.083l-3.379,5.266h-15.36l20.187-30.719h20.625ZM600.3,147.607l-5.047-7.898h-1.755l-5.047,7.898h11.849Z" style="fill: #fff;"/>
  <path d="M655.027,130.931l7.548,21.941h1.58l7.548-21.941h27.208v30.719h-14.043v-21.941h-1.755l-7.46,21.941h-24.575l-7.46-21.941h-1.755v21.941h-14.043v-30.719h27.208Z" style="fill: #fff;"/>
  <path d="M759.123,141.902c0,7.461-5.266,10.971-22.381,10.971h-18.87v8.777h-14.043v-30.719h32.913c17.115,0,22.381,3.512,22.381,10.971ZM739.815,144.535c3.949,0,5.266-1.096,5.266-2.633s-1.316-2.633-5.266-2.633h-21.942v5.266h21.942Z" style="fill: #fff;"/>
</svg>