<?xml version="1.0" encoding="UTF-8"?>
<svg id="Layer_1" data-name="Layer 1" xmlns="http://www.w3.org/2000/svg" viewBox="267 126 495 40">
  <path d="M285.549,161.651h-14.043v-30.719h14.043v30.719Z" style="fill: #fff;"/>
  <path d="M316.795,130.932l11.41,21.941h1.755v-21.941h14.043v30.719h-26.33l-11.41-21.942h-1.756v21.942h-14.043v-30.719h26.331Z" style="fill: #fff;"/>
  <path d="M348.482,140.148c0-5.179,7.812-10.094,27.209-10.094,18.519,0,27.208,5.135,27.208,11.849h-14.043c0-2.15-2.896-3.949-13.165-3.949-9.392,0-12.288,1.229-12.288,2.853,0,4.871,39.935-1.098,39.935,11.629,0,5.617-7.812,10.094-27.646,10.094-18.958,0-27.647-5.135-27.647-11.849h14.043c0,2.15,2.896,3.949,13.604,3.949,9.83,0,12.727-1.229,12.727-2.633,0-4.169-39.936,1.755-39.936-11.849Z" style="fill: #fff;"/>
  <path d="M452.578,139.708h-16.236v21.942h-14.043v-21.942h-16.237v-8.776h46.517v8.776Z" style="fill: #fff;"/>
  <path d="M486.897,130.932l20.188,30.719h-15.799l-3.379-5.266h-23.083l-3.379,5.266h-15.36l20.188-30.719h20.625ZM482.289,147.608l-5.047-7.899h-1.755l-5.047,7.899h11.849Z" style="fill: #fff;"/>
  <path d="M535.26,130.054c16.677,0,27.209,4.827,27.209,13.165h-14.043c0-1.536-4.828-3.949-13.166-3.949-9.128,0-14.92,2.413-14.92,7.021s5.792,7.021,14.92,7.021c6.803,0,11.278-1.624,12.683-3.511h-12.683v-4.827h27.209v16.676h-7.021l-2.766-5.573c-3.379,4.257-8.82,6.451-18.299,6.451-17.554,0-28.086-4.827-28.086-16.237s11.409-16.237,28.963-16.237Z" style="fill: #fff;"/>
  <path d="M622.154,141.903c0,5.529-2.853,8.865-11.278,10.226l9.523,9.522h-16.237l-8.777-8.777h-14.481v8.777h-14.043v-30.719h32.913c17.115,0,22.381,3.511,22.381,10.971ZM602.845,144.535c3.949,0,5.266-1.097,5.266-2.633s-1.316-2.633-5.266-2.633h-21.942v5.266h21.942Z" style="fill: #fff;"/>
  <path d="M664.198,130.932l20.187,30.719h-15.798l-3.38-5.266h-23.083l-3.379,5.266h-15.359l20.187-30.719h20.626ZM659.589,147.608l-5.046-7.899h-1.756l-5.047,7.899h11.849Z" style="fill: #fff;"/>
  <path d="M714.317,130.932l7.548,21.941h1.58l7.548-21.941h27.208v30.719h-14.043v-21.942h-1.755l-7.461,21.942h-24.575l-7.46-21.942h-1.756v21.942h-14.043v-30.719h27.209Z" style="fill: #fff;"/>
</svg>