<?xml version="1.0" encoding="UTF-8"?>
<svg id="Layer_1" data-name="Layer 1" xmlns="http://www.w3.org/2000/svg" viewBox="0 0 1029.711 1043.574">
  <circle cx="514.855" cy="502.164" r="407.145" style="fill: #fc0000;"/>
  <path d="M514.855,910.596c-55.137,0-108.626-10.799-158.981-32.097-48.636-20.571-92.315-50.02-129.824-87.53s-66.959-81.189-87.53-129.824c-21.298-50.354-32.097-103.843-32.097-158.981s10.799-108.626,32.097-158.981c20.571-48.636,50.02-92.315,87.53-129.824,37.509-37.509,81.189-66.959,129.824-87.53,50.354-21.298,103.843-32.097,158.981-32.097s108.626,10.799,158.981,32.097c48.636,20.571,92.315,50.02,129.824,87.53,37.509,37.509,66.959,81.189,87.53,129.824,21.298,50.354,32.097,103.843,32.097,158.981s-10.799,108.626-32.097,158.981c-20.571,48.636-50.02,92.315-87.53,129.824-37.509,37.509-81.189,66.959-129.824,87.53-50.354,21.298-103.843,32.097-158.981,32.097ZM514.855,96.306c-54.791,0-107.943,10.731-157.978,31.894-48.329,20.442-91.733,49.706-129.007,86.979-37.274,37.274-66.538,80.678-86.979,129.007-21.163,50.035-31.894,103.187-31.894,157.978s10.731,107.943,31.894,157.978c20.442,48.329,49.706,91.733,86.979,129.007,37.274,37.274,80.678,66.538,129.007,86.979,50.035,21.163,103.187,31.894,157.978,31.894s107.943-10.731,157.978-31.894c48.329-20.442,91.733-49.706,129.007-86.979,37.274-37.274,66.538-80.678,86.979-129.007,21.163-50.035,31.894-103.187,31.894-157.978s-10.731-107.943-31.894-157.978c-20.442-48.329-49.706-91.733-86.979-129.007-37.274-37.274-80.678-66.538-129.007-86.979-50.035-21.163-103.187-31.894-157.978-31.894Z"/>
</svg>